<?xml version="1.0" encoding="utf-8"?>
<!-- Generator: Adobe Illustrator 18.1.1, SVG Export Plug-In . SVG Version: 6.00 Build 0)  -->
<svg version="1.1" id="plane" xmlns="http://www.w3.org/2000/svg" xmlns:xlink="http://www.w3.org/1999/xlink" x="0px" y="0px"
	 viewBox="0 0 128 128" enable-background="new 0 0 128 128" xml:space="preserve">
<path fill="#59AFE1" d="M64.062,0C38.111,0,15.781,15.44,5.713,37.626l1.211,0.458L6.009,52.146l-5.386,3.068
	C0.223,58.108,0,61.059,0,64.062c0,12.697,3.709,24.521,10.081,34.477l14.989,5.792l3.725,13.182l0.007,0.028
	c10.115,6.683,22.229,10.583,35.26,10.583c3.098,0,6.14-0.232,9.12-0.657l2.395-6.577l13.972,1.687l0.116,0.212
	c22.634-9.882,38.46-32.451,38.46-58.727C128.124,28.682,99.443,0,64.062,0z"/>
<path fill="#2A5083" d="M69.101,74.324l-23.43,23.43l26.608,29.834l3.105-0.587c4.947-0.93,9.691-2.429,14.166-4.426L69.101,74.324z
	"/>
<path fill="#D3E0EA" d="M85.991,80.553l7.121,7.121c1.332,1.332,1.332,3.512,0,4.844L76.49,109.141
	c-3.291,3.291-8.675,3.291-11.965,0l0,0c-3.291-3.291-3.291-8.675,0-11.965l16.622-16.622
	C82.479,79.221,84.659,79.221,85.991,80.553z"/>
<path opacity="0.2" fill="#194063" d="M85.991,80.553l3.561,3.561l-25.027,25.027c-3.291-3.291-3.291-8.675,0-11.965l16.622-16.622
	C82.479,79.221,84.659,79.221,85.991,80.553z"/>
<path fill="#2A5083" d="M0.502,55.283l28.823,25.654l23.43-23.43L5.64,37.539C3.116,43.078,1.359,49.035,0.502,55.283z"/>
<path fill="#FFFFFF" d="M102.639,24.782c-6.574-6.575-22.099-1.711-34.673,10.864L8.2,95.412c3.09,5.494,6.965,10.482,11.476,14.819
	l84.083-84.083C103.431,25.659,103.059,25.201,102.639,24.782z"/>
<path fill="#D3E0EA" d="M18.464,109.037c3.976,4.032,8.486,7.53,13.41,10.4l59.982-59.982
	c12.575-12.575,17.439-28.099,10.865-34.674L18.464,109.037z"/>
<path fill="#FFFFFF" d="M46.639,41.201l-7.121-7.121c-1.332-1.332-3.512-1.332-4.844,0L18.051,50.702
	c-3.291,3.291-3.291,8.675,0,11.965l0,0c3.291,3.291,8.675,3.291,11.965,0l16.622-16.622C47.971,44.713,47.971,42.533,46.639,41.201
	z"/>
<path opacity="0.2" fill="#194063" d="M46.639,41.201l-3.561-3.561L18.051,62.667c3.291,3.291,8.675,3.291,11.965,0l16.622-16.622
	C47.971,44.713,47.971,42.533,46.639,41.201z"/>
<path opacity="0.2" fill="#194063" d="M72.965,63.574l-8.941-8.941c-1.706-1.706-1.706-4.496,0-6.202l2.075-2.075
	c1.706-1.706,4.496-1.706,6.202,0l8.941,8.941c1.706,1.706,1.706,4.496,0,6.202l-2.075,2.075
	C77.461,65.28,74.67,65.28,72.965,63.574z"/>
<path fill="#194063" d="M72.905,60.107l-0.712-0.712c-0.586-0.586-0.586-1.544,0-2.129l2.753-2.753c0.586-0.586,1.544-0.586,2.129,0
	l0.713,0.712c0.586,0.586,0.586,1.544,0,2.129l-2.753,2.753C74.449,60.693,73.491,60.693,72.905,60.107z"/>
<path fill="#194063" d="M67.965,55.167l-0.713-0.712c-0.586-0.586-0.586-1.544,0-2.129l2.753-2.753c0.586-0.586,1.544-0.586,2.129,0
	l0.712,0.712c0.586,0.586,0.586,1.544,0,2.129l-2.753,2.753C69.509,55.752,68.55,55.752,67.965,55.167z"/>
</svg>
